# AST/ASF file generated using VICON BodyLanguage
# -----------------------------------------------
:version 1.10
:name VICON
:units
  mass 1.0
  length 0.45
  angle deg
:documentation
   .ast/.asf automatically generated from VICON data using
   VICON BodyBuilder and BodyLanguage model FoxedUp or BRILLIANT.MOD
:root
   order TX TY TZ RX RY RZ
   axis XYZ
   position 0 0 0  
   orientation 0 0 0 
:bonedata
  begin
     id 1 
     name lhipjoint
     direction 0.690799 -0.707083 0.151096 
     length 2.54797 
     axis 0 0 0  XYZ
  end
  begin
     id 2 
     name lfemur
     direction 0.34202 -0.939693 0  
     length 7.21646  
     axis 0 0 20  XYZ
    dof rx ry rz
    limits (-160.0 20.0)
           (-70.0 70.0)
           (-60.0 70.0)
  end
  begin
     id 3 
     name ltibia
     direction 0.34202 -0.939693 0   
     length 8.16759   
     axis 0 0 20   XYZ
    dof rx
    limits (-10.0 170.0)
  end
  begin
     id 4 
     name lfoot
     direction 0.0487203 -0.133858 0.989802   
     length 1.93375   
     axis -90 7.62852e-016 20   XYZ
    dof rx rz
    limits (-45.0 90.0)
           (-70.0 20.0)
  end
  begin
     id 5 
     name ltoes
     direction 1.53453e-011 -4.21783e-011 1   
     length 0.979747   
     axis -90 7.62852e-016 20   XYZ
    dof rx
    limits (-90.0 20.0)
  end
  begin
     id 6 
     name rhipjoint
     direction -0.694693 -0.703425 0.150315   
     length 2.56122  
     axis 0 0 0  XYZ 
  end
  begin
     id 7 
     name rfemur
     direction -0.34202 -0.939693 0   
     length 7.36786   
     axis 0 0 -20   XYZ
    dof rx ry rz
    limits (-160.0 20.0)
           (-70.0 70.0)
           (-70.0 60.0)
  end
  begin
     id 8 
     name rtibia
     direction -0.34202 -0.939693 0   
     length 8.07288   
     axis 0 0 -20   XYZ
    dof rx
    limits (-10.0 170.0)
 end
 begin
     id 9 
     name rfoot
     direction -0.0428397 -0.117701 0.992125   
     length 1.88295  
     axis -90 -7.62852e-016 -20   XYZ
    dof rx rz
    limits (-45.0 90.0)
           (-20.0 70.0)
  end
  begin
     id 10 
     name rtoes
     direction -1.53456e-011 -4.2187e-011 1   
     length 0.955578   
     axis -90 -7.62852e-016 -20   XYZ
    dof rx
    limits (-90.0 20.0)
  end
  begin
     id 11 
     name lowerback
     direction 0.0288145 0.999398 -0.0193241   
     length 1.92149   
     axis 0 0 0   XYZ
    dof rx ry rz
    limits (-20.0 45.0)
           (-30.0 30.0)
           (-30.0 30.0)
  end
  begin
     id 12 
     name upperback
     direction 0.0233784 0.998099 0.0570278   
     length 1.90435   
     axis 0 0 0   XYZ
    dof rx ry rz
    limits (-20.0 45.0)
           (-30.0 30.0)
           (-30.0 30.0)
  end
  begin
     id 13 
     name thorax
     direction 0.0096694 0.997833 0.0650817   
     length 1.9111   
     axis 0 0 0   XYZ
    dof rx ry rz
    limits (-20.0 45.0)
           (-30.0 30.0)
           (-30.0 30.0)
  end
  begin
     id 14 
     name lowerneck
     direction 0.00516803 0.999916 0.0118722   
     length 1.74664   
     axis 0 0 0   XYZ
    dof rx ry rz
    limits (-20.0 45.0)
           (-30.0 30.0)
           (-30.0 30.0)
  end
  begin
     id 15 
     name upperneck
     direction -0.0510851 0.996117 -0.071696   
     length 1.68498   
     axis 0 0 0   XYZ
    dof rx ry rz
    limits (-20.0 45.0)
           (-30.0 30.0)
           (-30.0 30.0)
  end
  begin
     id 16
     name head
     direction -0.019188 0.999436 -0.0275702  
     length 1.83483  
     axis 0 0 0   XYZ
    dof rx ry rz
    limits (-20.0 45.0)
           (-30.0 30.0)
           (-30.0 30.0)
  end
  begin
     id 17 
     name lclavicle
     direction 0.967006 0.248456 -0.0562957  
     length 3.39395  
     axis 0 0 0   XYZ
    dof ry rz
    limits (-20.0 10.0)
           (0.0 20.0)
  end
  begin
     id 18 
     name lhumerus
     direction 1 -4.48962e-011 -5.62711e-019   
     length 5.24318   
     axis 180 -30 -90   XYZ
    dof rx ry rz
    limits (-60.0 90.0)
           (-90.0 90.0)
           (-90.0 90.0)
  end
  begin
     id 19
     name lradius
     direction 1 -4.48966e-011 7.90625e-027   
     length 2.98999   
     axis 180 -30 -90   XYZ
    dof rx
    limits (-10.0 170.0)
  end
  begin
     id 20
     name lwrist
     direction 1 -4.48959e-011 1.61068e-026   
     length 1.49499   
     axis -9.31229e-015 90 90   XYZ
    dof ry
    limits (-180.0 0.0)
 end
  begin
     id 21 
     name lhand
     direction 1 -4.49017e-011 3.22136e-026   
     length 0.726745   
     axis -2.0555e-014 90 90   XYZ
    dof rx rz
    limits (-90.0 90.0)
           (-45.0 45.0)
  end
  begin
     id 22 
     name lfingers
     direction 1 -4.4898e-011 6.44272e-026   
     length 0.58592   
     axis -4.11101e-014 90 90   XYZ
    dof rx
    limits (0.0 90.0)
  end
  begin
     id 23
     name lthumb
     direction 0.707107 -6.34922e-011 0.707107   
     length 0.841268   
     axis -90 45 2.85299e-015   XYZ
    dof rx rz
    limits (-45.0 45.0)
           (-45.0 45.0)
  end
  begin
     id 24 
     name rclavicle
     direction -0.972232 0.230238 0.0419005   
     length 3.40416  
     axis 0 0 0   XYZ 
    dof ry rz
    limits (-10.0 20.0)
           (-20.0 0.0)
  end
  begin
     id 25 
     name rhumerus
     direction -1 -4.48976e-011 2.48487e-027  
     length 5.37045   
     axis 180 30 90   XYZ
    dof rx ry rz
    limits (-90.0 60.0)
           (-90.0 90.0)
           (-90.0 90.0)
  end
  begin
     id 26 
     name rradius
     direction -1 -4.48942e-011 7.87951e-027   
     length 2.92792   
     axis 180 30 90   XYZ
    dof rx
    limits (-10.0 170.0)
  end
  begin
     id 27 
     name rwrist
     direction -1 -4.48969e-011 1.61068e-026   
     length 1.46396   
     axis -9.31229e-015 -90 -90   XYZ
    dof ry
    limits (-180.0 0.0)
  end
  begin
     id 28
     name rhand
     direction -1 -4.49043e-011 3.22136e-026   
     length 0.784497   
     axis -2.0555e-014 -90 -90   XYZ
    dof rx rz
    limits (-90.0 90.0)
           (-45.0 45.0)
  end
  begin
     id 29
     name rfingers
     direction -1 -4.48823e-011 6.44272e-026   
     length 0.632482   
     axis -4.11101e-014 -90 -90   XYZ
    dof rx
    limits (0.0 90.0)
  end
  begin
     id 30
     name rthumb
     direction -0.707107 -6.34923e-011 0.707107   
     length 0.908121   
     axis -90 -45 -2.85299e-015   XYZ
    dof rx rz
    limits (-45.0 45.0)
           (-45.0 45.0)
  end
:hierarchy
  begin
    root lhipjoint rhipjoint lowerback
    lhipjoint lfemur
    lfemur ltibia
    ltibia lfoot
    lfoot ltoes
    rhipjoint rfemur
    rfemur rtibia
    rtibia rfoot
    rfoot rtoes
    lowerback upperback
    upperback thorax
    thorax lowerneck lclavicle rclavicle
    lowerneck upperneck
    upperneck head
    lclavicle lhumerus
    lhumerus lradius
    lradius lwrist
    lwrist lhand lthumb
    lhand lfingers
    rclavicle rhumerus
    rhumerus rradius
    rradius rwrist
    rwrist rhand rthumb
    rhand rfingers
  end

#!OML:ASF E:\Style6\Style6.ASF
:FULLY-SPECIFIED
:DEGREES
1788
root -0.370055 16.3627 1.48867 -21.2491 -9.97051 -5.26486
lowerback -1.45507 -1.7381 -6.13581
upperback 9.671 -1.9294 -0.250855
thorax 11.4149 -1.51194 2.92709
lowerneck 13.0193 -8.72209 3.12402
upperneck 6.71602 -11.1355 -4.27962
head -0.461871 -5.47359 -1.35088
rclavicle 1.90336e-014 -1.11319e-014
rhumerus 4.83486 26.8899 0.667232
rradius 99.4261
rwrist -29.8349
rhand 23.4231 4.20391
rfingers 7.12502
rthumb 47.7096 -18.1433
lclavicle 1.90336e-014 -1.11319e-014
lhumerus -37.6802 -33.6228 85.8918
lradius 35.1643
lwrist -14.8019
lhand 7.33181 12.597
lfingers 7.12502
lthumb 32.5915 39.6825
rfemur 4.12467 -9.99184 21.0679
rtibia 50.5202
rfoot -24.5766 1.67513
rtoes -20.4228
lfemur 9.54643 3.82334 -6.6432
ltibia 50.6922
lfoot -26.7697 14.2703
ltoes -35.0868
1789
root -0.377201 16.3614 1.49674 -21.1942 -9.94142 -5.37865
lowerback -1.52715 -1.77786 -6.04924
upperback 9.61973 -1.9857 -0.252101
thorax 11.4002 -1.52941 2.86994
lowerneck 13.3156 -8.73039 2.94504
upperneck 6.4846 -11.1664 -4.22902
head -0.571578 -5.48844 -1.28649
rclavicle -1.89342e-014 7.15625e-015
rhumerus 5.16657 25.0757 1.72953
rradius 99.4918
rwrist -30.3996
rhand 23.7976 4.1306
rfingers 7.12502
rthumb 48.055 -18.0565
lclavicle -1.89342e-014 7.15625e-015
lhumerus -38.9835 -34.3214 87.2855
lradius 35.5041
lwrist -14.2359
lhand 7.62409 12.6503
lfingers 7.12502
lthumb 32.8695 39.678
rfemur 4.12716 -9.9306 21.279
rtibia 50.4897
rfoot -24.5716 1.36984
rtoes -21.2009
lfemur 9.50079 3.70922 -6.55995
ltibia 50.7278
lfoot -26.7244 14.4361
ltoes -35.2933
1790
root -0.38344 16.3586 1.50503 -21.2105 -9.96757 -5.59823
lowerback -1.47763 -1.80549 -5.81193
upperback 9.58214 -2.04728 -0.23126
thorax 11.3188 -1.53621 2.75558
lowerneck 13.541 -8.70795 2.7794
upperneck 6.31065 -11.1566 -4.21688
head -0.653669 -5.48321 -1.24292
rclavicle 5.96354e-015 2.62396e-014
rhumerus 5.59294 23.3316 2.85556
rradius 99.4474
rwrist -30.9929
rhand 23.9307 4.37602
rfingers 7.12502
rthumb 48.1776 -17.7535
lclavicle 5.96354e-015 2.62396e-014
lhumerus -40.302 -34.8803 88.6198
lradius 35.8964
lwrist -13.6625
lhand 7.90708 12.6159
lfingers 7.12502
lthumb 33.1387 39.5868
rfemur 4.22853 -9.80274 21.6304
rtibia 50.4431
rfoot -24.5584 1.11877
rtoes -21.4795
lfemur 9.54112 3.59907 -6.31928
ltibia 50.7835
lfoot -26.7861 14.4661
ltoes -35.3256
1791
root -0.391037 16.3574 1.51458 -21.2098 -9.93814 -5.68805
lowerback -1.52902 -1.81962 -5.70676
upperback 9.57228 -2.0667 -0.275137
thorax 11.3321 -1.53335 2.64599
lowerneck 13.6251 -8.70908 2.74343
upperneck 6.22684 -11.1625 -4.2271
head -0.69347 -5.48506 -1.23432
rclavicle -2.08227e-014 -1.59028e-015
rhumerus 5.93465 21.5989 3.90596
rradius 99.3555
rwrist -31.5032
rhand 23.8389 4.56087
rfingers 7.12502
rthumb 48.093 -17.6084
lclavicle -2.08227e-014 -1.59028e-015
lhumerus -41.5634 -35.4586 89.8316
lradius 36.3169
lwrist -13.2533
lhand 7.98766 12.4212
lfingers 7.12502
lthumb 33.2153 39.3757
rfemur 4.29358 -9.68202 21.8308
rtibia 50.3947
rfoot -24.5135 0.809473
rtoes -21.9618
lfemur 9.55097 3.47923 -6.2551
ltibia 50.8355
lfoot -26.8752 14.4842
ltoes -35.2645
1792
root -0.398723 16.3562 1.52416 -21.2045 -9.87453 -5.67956
lowerback -1.62687 -1.82639 -5.72262
upperback 9.56899 -2.06249 -0.331973
thorax 11.3859 -1.53015 2.59086
lowerneck 13.6378 -8.72104 2.72148
upperneck 6.25105 -11.1804 -4.25696
head -0.688878 -5.4941 -1.23911
rclavicle -4.13472e-014 5.32743e-014
rhumerus 6.20224 19.6968 4.74327
rradius 99.2993
rwrist -31.9417
rhand 24.4588 3.97133
rfingers 7.12502
rthumb 48.6639 -17.9257
lclavicle -4.13472e-014 5.32743e-014
lhumerus -42.745 -36.1126 91.0633
lradius 36.6276
lwrist -12.7549
lhand 8.00254 12.212
lfingers 7.12502
lthumb 33.2294 39.1635
rfemur 4.35502 -9.56545 21.9075
rtibia 50.3528
rfoot -24.4891 0.60572
rtoes -22.3668
lfemur 9.54072 3.36456 -6.32022
ltibia 50.8745
lfoot -26.8644 14.6252
ltoes -35.3601
1793
root -0.405794 16.3559 1.53312 -21.1836 -9.79884 -5.74171
lowerback -1.72385 -1.83698 -5.66596
upperback 9.57792 -2.07072 -0.367404
thorax 11.4512 -1.52813 2.51671
lowerneck 13.6393 -8.74935 2.783
upperneck 6.24006 -11.2086 -4.38674
head -0.706555 -5.5047 -1.28704
rclavicle -2.46493e-014 -1.82882e-014
rhumerus 6.55083 17.7958 5.60403
rradius 99.1433
rwrist -32.4417
rhand 25.1953 3.58125
rfingers 7.12502
rthumb 49.3404 -17.9811
lclavicle -2.46493e-014 -1.82882e-014
lhumerus -43.6559 -36.5816 92.1189
lradius 36.8497
lwrist -12.0693
lhand 8.44583 12.2925
lfingers 7.12502
lthumb 33.6508 39.1531
rfemur 4.40463 -9.48201 22.0524
rtibia 50.3134
rfoot -24.4709 0.376834
rtoes -22.9606
lfemur 9.51022 3.22057 -6.31819
ltibia 50.909
lfoot -26.7935 14.8657
ltoes -35.6496
1794
root -0.411111 16.355 1.53981 -21.1519 -9.71743 -5.81812
lowerback -1.83136 -1.84828 -5.57741
upperback 9.60479 -2.08185 -0.397886
thorax 11.5422 -1.52575 2.42892
lowerneck 13.5804 -8.76355 2.89033
upperneck 6.20296 -11.2136 -4.57053
head -0.729003 -5.50226 -1.36237
rclavicle 3.03147e-014 2.70347e-014
rhumerus 6.98707 16.0331 6.59472
rradius 98.8151
rwrist -33.0109
rhand 25.3672 3.87456
rfingers 7.12502
rthumb 49.498 -17.6078
lclavicle 3.03147e-014 2.70347e-014
lhumerus -44.4268 -36.8862 92.986
lradius 37.0969
lwrist -11.4618
lhand 8.95202 12.4606
lfingers 7.12502
lthumb 34.1317 39.215
rfemur 4.4279 -9.46402 22.1839
rtibia 50.2725
rfoot -24.4408 0.139804
rtoes -23.7259
lfemur 9.45933 3.05866 -6.31642
ltibia 50.9407
lfoot -26.7253 15.1092
ltoes -35.9501
1795
root -0.416011 16.3538 1.54609 -21.1493 -9.62814 -5.92347
lowerback -1.90451 -1.87181 -5.46964
upperback 9.63544 -2.11472 -0.417464
thorax 11.618 -1.53258 2.34044
lowerneck 13.4625 -8.74184 2.96067
upperneck 6.25404 -11.1763 -4.71967
head -0.706831 -5.48175 -1.42841
rclavicle -7.20594e-014 1.03368e-014
rhumerus 7.40145 14.1891 7.41037
rradius 98.5417
rwrist -33.5496
rhand 25.7654 3.99315
rfingers 7.12502
rthumb 49.8629 -17.3013
lclavicle -7.20594e-014 1.03368e-014
lhumerus -45.2145 -37.0703 93.794
lradius 37.276
lwrist -11.1006
lhand 9.17389 12.3267
lfingers 7.12502
lthumb 34.3424 39.0338
rfemur 4.4962 -9.46293 22.3304
rtibia 50.2179
rfoot -24.3958 0.125657
rtoes -23.2282
lfemur 9.44221 2.90631 -6.25107
ltibia 50.9726
lfoot -26.7087 15.2695
ltoes -36.1856
1796
root -0.419989 16.3522 1.55586 -21.1502 -9.48873 -6.00983
lowerback -2.0448 -1.90567 -5.37328
upperback 9.67477 -2.15469 -0.45344
thorax 11.7457 -1.54377 2.237
lowerneck 13.4193 -8.75539 3.12462
upperneck 6.2544 -11.172 -4.88865
head -0.721846 -5.47424 -1.50957
rclavicle -2.55438e-014 -3.97569e-015
rhumerus 7.7393 12.2516 8.07629
rradius 98.3598
rwrist -34.0121
rhand 26.4615 3.92158
rfingers 7.12502
rthumb 50.4995 -17.0349
lclavicle -2.55438e-014 -3.97569e-015
lhumerus -46.0001 -37.2671 94.5658
lradius 37.4245
lwrist -10.6129
lhand 9.20126 12.0361
lfingers 7.12502
lthumb 34.3684 38.7373
rfemur 4.60024 -9.51946 22.4052
rtibia 50.1616
rfoot -24.428 0.190025
rtoes -22.7185
lfemur 9.44119 2.74248 -6.21212
ltibia 50.9995
lfoot -26.7859 15.268
ltoes -36.0439
1797
root -0.423879 16.351 1.56675 -21.1431 -9.38118 -6.11461
lowerback -2.17008 -1.92373 -5.26177
upperback 9.68448 -2.18026 -0.44875
thorax 11.8295 -1.54733 2.17228
lowerneck 13.56 -8.77146 3.18636
upperneck 6.16651 -11.1823 -4.97395
head -0.784163 -5.47396 -1.53758
rclavicle -2.22639e-014 -1.35174e-014
rhumerus 8.05604 10.3734 8.76876
rradius 98.2551
rwrist -34.3701
rhand 27.2209 3.78107
rfingers 7.12502
rthumb 51.192 -16.7925
lclavicle -2.22639e-014 -1.35174e-014
lhumerus -46.6842 -37.349 95.2945
lradius 37.4725
lwrist -10.2308
lhand 9.19226 11.7731
lfingers 7.12502
lthumb 34.3598 38.4762
rfemur 4.69979 -9.56572 22.5059
rtibia 50.118
rfoot -24.4817 0.304596
rtoes -22.5316
lfemur 9.44582 2.61819 -6.12374
ltibia 51.0127
lfoot -26.8153 15.2816
ltoes -36.17
1798
root -0.429221 16.3492 1.5743 -21.1123 -9.30831 -6.22322
lowerback -2.27141 -1.90654 -5.15802
upperback 9.68901 -2.1606 -0.427921
thorax 11.8898 -1.53004 2.13629
lowerneck 13.6203 -8.79467 3.15137
upperneck 6.13476 -11.2164 -4.93855
head -0.800928 -5.49094 -1.51547
rclavicle -3.8763e-015 -7.95139e-016
rhumerus 8.37861 8.51839 9.46857
rradius 98.11
rwrist -34.7688
rhand 27.9503 3.59815
rfingers 7.12502
rthumb 51.855 -16.5932
lclavicle -3.8763e-015 -7.95139e-016
lhumerus -47.249 -37.5015 95.9564
lradius 37.4623
lwrist -9.78371
lhand 9.27676 11.7206
lfingers 7.12502
lthumb 34.4401 38.4056
rfemur 4.72818 -9.56602 22.6555
rtibia 50.0947
rfoot -24.4835 0.196127
rtoes -23.206
lfemur 9.42034 2.56979 -5.97704
ltibia 51.0102
lfoot -26.8474 15.1941
ltoes -36.2258
1799
root -0.434688 16.3491 1.58173 -21.1834 -9.20372 -6.16026
lowerback -2.29078 -1.88014 -5.26091
upperback 9.70075 -2.11352 -0.433844
thorax 11.9175 -1.51711 2.1923
lowerneck 13.4793 -8.81614 3.08708
upperneck 6.31491 -11.2528 -4.97317
head -0.718326 -5.51343 -1.5241
rclavicle 2.8625e-014 4.77083e-015
rhumerus 8.82049 6.68941 10.1789
rradius 97.8673
rwrist -35.1281
rhand 28.5934 3.58933
rfingers 7.12502
rthumb 52.438 -16.2525
lclavicle 2.8625e-014 4.77083e-015
lhumerus -47.7736 -37.6347 96.6251
lradius 37.3552
lwrist -9.22306
lhand 9.31517 11.7925
lfingers 7.12502
lthumb 34.4765 38.4692
rfemur 4.83701 -9.54267 22.5942
rtibia 50.0723
rfoot -24.4566 0.0843645
rtoes -23.5617
lfemur 9.49108 2.53166 -6.0299
ltibia 50.9914
lfoot -26.873 15.0639
ltoes -36.1632
1800
root -0.440143 16.35 1.59101 -21.2918 -9.10535 -6.0962
lowerback -2.33164 -1.8686 -5.38688
upperback 9.72794 -2.08539 -0.417104
thorax 11.9806 -1.51807 2.28204
lowerneck 13.4143 -8.83689 3.08384
upperneck 6.43043 -11.2785 -5.1306
head -0.681885 -5.52595 -1.57687
rclavicle -1.8487e-014 -1.11319e-014
rhumerus 9.38857 4.81449 10.8148
rradius 97.5032
rwrist -35.2112
rhand 29.1332 3.847
rfingers 7.12502
rthumb 52.926 -15.6921
lclavicle -1.8487e-014 -1.11319e-014
lhumerus -48.0312 -37.4799 97.0818
lradius 36.9792
lwrist -8.82133
lhand 9.45711 11.7269
lfingers 7.12502
lthumb 34.6113 38.3729
rfemur 5.00451 -9.52648 22.5164
rtibia 50.0376
rfoot -24.4985 0.0672772
rtoes -23.4178
lfemur 9.62755 2.50952 -6.06818
ltibia 50.956
lfoot -26.8761 15.0264
ltoes -36.1091
1801
root -0.444674 16.3512 1.59886 -21.2991 -9.10185 -6.3639
lowerback -2.38626 -1.86415 -5.18269
upperback 9.72468 -2.10714 -0.277984
thorax 12.0063 -1.51805 2.31502
lowerneck 13.4852 -8.84791 3.15416
upperneck 6.4413 -11.2798 -5.35348
head -0.710588 -5.52086 -1.65532
rclavicle 7.7526e-015 -2.14687e-014
rhumerus 10.0545 2.8743 11.3456
rradius 97.0973
rwrist -35.16
rhand 29.6363 4.17113
rfingers 7.12502
rthumb 53.3797 -15.0778
lclavicle 7.7526e-015 -2.14687e-014
lhumerus -48.1055 -37.1041 97.4088
lradius 36.4199
lwrist -8.61198
lhand 9.84077 11.6867
lfingers 7.12502
lthumb 34.9753 38.2485
rfemur 5.11329 -9.53278 22.8315
rtibia 49.9698
rfoot -24.5209 0.355422
rtoes -21.7847
lfemur 9.69433 2.52945 -5.65971
ltibia 50.9199
lfoot -26.8667 14.9488
ltoes -36.3223
1802
root -0.446669 16.3552 1.60679 -21.2799 -8.98065 -6.51317
lowerback -2.46669 -1.88065 -5.11322
upperback 9.68223 -2.14055 -0.183379
thorax 12.0097 -1.53223 2.37318
lowerneck 13.6318 -8.87022 3.35945
upperneck 6.40259 -11.2766 -5.64469
head -0.781638 -5.5081 -1.77362
rclavicle 2.87244e-014 -1.19271e-014
rhumerus 10.75 0.914176 11.7144
rradius 96.7433
rwrist -35.1425
rhand 29.9128 4.4149
rfingers 7.12502
rthumb 53.6285 -14.6712
lclavicle 2.87244e-014 -1.19271e-014
lhumerus -48.1027 -36.6684 97.6786
lradius 35.6758
lwrist -8.47544
lhand 10.1002 11.5347
lfingers 7.12502
lthumb 35.2214 38.0387
rfemur 5.18348 -9.62539 22.9649
rtibia 49.8959
rfoot -24.4717 0.299993
rtoes -22.1914
lfemur 9.70159 2.46636 -5.47274
ltibia 50.8633
lfoot -26.7906 14.965
ltoes -36.6713
